<svg width="150" height="150" viewBox="0 0 150 150" fill="none" xmlns="http://www.w3.org/2000/svg">
<circle cx="75" cy="75" r="75" fill="white"/>
<path d="M45.3896 113.84C49.3179 117.771 53.9822 120.889 59.116 123.016C64.2498 125.144 69.7525 126.239 75.3096 126.239C80.8668 126.239 86.3695 125.144 91.5033 123.016C96.6371 120.889 101.301 117.771 105.23 113.84L75.3096 83.8398L45.3896 113.84Z" fill="#F9B24E"/>
<path d="M45.3896 53.96C37.4566 61.8944 33 72.655 33 83.875C33 95.095 37.4566 105.856 45.3896 113.79L75.3096 83.84L45.3896 53.96Z" fill="#A8BBC6"/>
<path d="M75.2997 83.84C79.2304 79.9117 82.3485 75.2474 84.476 70.1136C86.6034 64.9798 87.6984 59.4772 87.6984 53.92C87.6984 48.3629 86.6034 42.8602 84.476 37.7264C82.3485 32.5926 79.2304 27.9283 75.2997 24L45.3896 53.96L75.2997 83.84Z" fill="#45525B"/>
<path d="M105.22 113.84C113.153 105.905 117.609 95.1448 117.609 83.9248C117.609 72.7048 113.153 61.9442 105.22 54.0098L75.2998 83.8398L105.22 113.84Z" fill="#FE7E02"/>
</svg>
